<?xml version="1.0" encoding="UTF-8" standalone="no"?>
<svg
   xmlns:dc="http://purl.org/dc/elements/1.1/"
   xmlns:cc="http://creativecommons.org/ns#"
   xmlns:rdf="http://www.w3.org/1999/02/22-rdf-syntax-ns#"
   xmlns:svg="http://www.w3.org/2000/svg"
   xmlns="http://www.w3.org/2000/svg"
   xmlns:sodipodi="http://sodipodi.sourceforge.net/DTD/sodipodi-0.dtd"
   xmlns:inkscape="http://www.inkscape.org/namespaces/inkscape"
   width="360"
   height="235.177"
   version="1.1"
   id="svg6980"
   sodipodi:docname="function-tan-tanh.svg"
   inkscape:version="0.92.2 (5c3e80d, 2017-08-06)">
  <metadata
     id="metadata6986">
    <rdf:RDF>
      <cc:Work
         rdf:about="">
        <dc:format>image/svg+xml</dc:format>
        <dc:type
           rdf:resource="http://purl.org/dc/dcmitype/StillImage" />
      </cc:Work>
    </rdf:RDF>
  </metadata>
  <defs
     id="defs6984" />
  <sodipodi:namedview
     pagecolor="#ffffff"
     bordercolor="#666666"
     borderopacity="1"
     objecttolerance="10"
     gridtolerance="10"
     guidetolerance="10"
     inkscape:pageopacity="0"
     inkscape:pageshadow="2"
     inkscape:window-width="640"
     inkscape:window-height="480"
     id="namedview6982"
     showgrid="false"
     inkscape:current-layer="svg6980" />
  <desc
     id="desc6930">SVG Output</desc>
  <polyline
     points="0.0000 170.00, 550.00 170.00, "
     id="polyline6932"
     transform="matrix(0.653636,0,0,0.653368,0.250051,7.07025)"
     style="stroke:#000000;stroke-width:3.060434" />
  <polyline
     points="275.00 340.00, 275.00 0.0000, "
     id="polyline6934"
     transform="matrix(0.653636,0,0,0.653368,0.250051,7.07025)"
     style="stroke:#000000;stroke-width:3.060434" />
  <polyline
     points="0.0000 335.00, 550.00 335.00, "
     id="polyline6936"
     transform="matrix(0.653636,0,0,0.653368,0.250051,7.07025)"
     style="stroke:#888888;stroke-width:0.765108" />
  <polyline
     points="0.0000 280.00, 550.00 280.00, "
     id="polyline6938"
     transform="matrix(0.653636,0,0,0.653368,0.250051,7.07025)"
     style="stroke:#888888;stroke-width:0.765108" />
  <polyline
     points="0.0000 225.00, 550.00 225.00, "
     id="polyline6940"
     transform="matrix(0.653636,0,0,0.653368,0.250051,7.07025)"
     style="stroke:#888888;stroke-width:0.765108" />
  <polyline
     points="0.0000 170.00, 550.00 170.00, "
     id="polyline6942"
     transform="matrix(0.653636,0,0,0.653368,0.250051,7.07025)"
     style="stroke:#888888;stroke-width:0.765108" />
  <polyline
     points="0.0000 115.00, 550.00 115.00, "
     id="polyline6944"
     transform="matrix(0.653636,0,0,0.653368,0.250051,7.07025)"
     style="stroke:#888888;stroke-width:0.765108" />
  <polyline
     points="0.0000 60.000, 550.00 60.000, "
     id="polyline6946"
     transform="matrix(0.653636,0,0,0.653368,0.250051,7.07025)"
     style="stroke:#888888;stroke-width:0.765108" />
  <polyline
     points="0.0000 5.0000, 550.00 5.0000, "
     id="polyline6948"
     transform="matrix(0.653636,0,0,0.653368,0.250051,7.07025)"
     style="stroke:#888888;stroke-width:0.765108" />
  <polyline
     points="0.0000 340.00, 0.0000 0.0000, "
     id="polyline6950"
     transform="matrix(0.653636,0,0,0.653368,0.250051,7.07025)"
     style="stroke:#888888;stroke-width:0.765108" />
  <polyline
     points="55.000 340.00, 55.000 0.0000, "
     id="polyline6952"
     transform="matrix(0.653636,0,0,0.653368,0.250051,7.07025)"
     style="stroke:#888888;stroke-width:0.765108" />
  <polyline
     points="110.00 340.00, 110.00 0.0000, "
     id="polyline6954"
     transform="matrix(0.653636,0,0,0.653368,0.250051,7.07025)"
     style="stroke:#888888;stroke-width:0.765108" />
  <polyline
     points="165.00 340.00, 165.00 0.0000, "
     id="polyline6956"
     transform="matrix(0.653636,0,0,0.653368,0.250051,7.07025)"
     style="stroke:#888888;stroke-width:0.765108" />
  <polyline
     points="220.00 340.00, 220.00 0.0000, "
     id="polyline6958"
     transform="matrix(0.653636,0,0,0.653368,0.250051,7.07025)"
     style="stroke:#888888;stroke-width:0.765108" />
  <polyline
     points="275.00 340.00, 275.00 0.0000, "
     id="polyline6960"
     transform="matrix(0.653636,0,0,0.653368,0.250051,7.07025)"
     style="stroke:#888888;stroke-width:0.765108" />
  <polyline
     points="330.00 340.00, 330.00 0.0000, "
     id="polyline6962"
     transform="matrix(0.653636,0,0,0.653368,0.250051,7.07025)"
     style="stroke:#888888;stroke-width:0.765108" />
  <polyline
     points="385.00 340.00, 385.00 0.0000, "
     id="polyline6964"
     transform="matrix(0.653636,0,0,0.653368,0.250051,7.07025)"
     style="stroke:#888888;stroke-width:0.765108" />
  <polyline
     points="440.00 340.00, 440.00 0.0000, "
     id="polyline6966"
     transform="matrix(0.653636,0,0,0.653368,0.250051,7.07025)"
     style="stroke:#888888;stroke-width:0.765108" />
  <polyline
     points="495.00 340.00, 495.00 0.0000, "
     id="polyline6968"
     transform="matrix(0.653636,0,0,0.653368,0.250051,7.07025)"
     style="stroke:#888888;stroke-width:0.765108" />
  <polyline
     points="550.00 340.00, 550.00 0.0000, "
     id="polyline6970"
     transform="matrix(0.653636,0,0,0.653368,0.250051,7.07025)"
     style="stroke:#888888;stroke-width:0.765108" />
  <polyline
     points="0.0000 225.00, 1.0000 224.99, 2.0000 224.99, 3.0000 224.99, 4.0000 224.99, 5.0000 224.99, 6.0000 224.99, 7.0000 224.99, 8.0000 224.99, 9.0000 224.99, 10.000 224.99, 11.000 224.99, 12.000 224.99, 13.000 224.99, 14.000 224.99, 15.000 224.99, 16.000 224.99, 17.000 224.99, 18.000 224.99, 19.000 224.99, 20.000 224.99, 21.000 224.99, 22.000 224.99, 23.000 224.99, 24.000 224.99, 25.000 224.99, 26.000 224.99, 27.000 224.99, 28.000 224.99, 29.000 224.99, 30.000 224.99, 31.000 224.98, 32.000 224.98, 33.000 224.98, 34.000 224.98, 35.000 224.98, 36.000 224.98, 37.000 224.98, 38.000 224.98, 39.000 224.98, 40.000 224.98, 41.000 224.98, 42.000 224.98, 43.000 224.98, 44.000 224.98, 45.000 224.97, 46.000 224.97, 47.000 224.97, 48.000 224.97, 49.000 224.97, 50.000 224.97, 51.000 224.97, 52.000 224.97, 53.000 224.97, 54.000 224.96, 55.000 224.96, 56.000 224.96, 57.000 224.96, 58.000 224.96, 59.000 224.96, 60.000 224.96, 61.000 224.95, 62.000 224.95, 63.000 224.95, 64.000 224.95, 65.000 224.95, 66.000 224.94, 67.000 224.94, 68.000 224.94, 69.000 224.94, 70.000 224.94, 71.000 224.93, 72.000 224.93, 73.000 224.93, 74.000 224.93, 75.000 224.92, 76.000 224.92, 77.000 224.92, 78.000 224.91, 79.000 224.91, 80.000 224.91, 81.000 224.91, 82.000 224.90, 83.000 224.90, 84.000 224.89, 85.000 224.89, 86.000 224.89, 87.000 224.88, 88.000 224.88, 89.000 224.87, 90.000 224.87, 91.000 224.86, 92.000 224.86, 93.000 224.85, 94.000 224.85, 95.000 224.84, 96.000 224.84, 97.000 224.83, 98.000 224.82, 99.000 224.82, 100.00 224.81, 101.00 224.80, 102.00 224.80, 103.00 224.79, 104.00 224.78, 105.00 224.77, 106.00 224.76, 107.00 224.76, 108.00 224.75, 109.00 224.74, 110.00 224.73, 111.00 224.72, 112.00 224.71, 113.00 224.70, 114.00 224.69, 115.00 224.67, 116.00 224.66, 117.00 224.65, 118.00 224.64, 119.00 224.62, 120.00 224.61, 121.00 224.59, 122.00 224.58, 123.00 224.56, 124.00 224.55, 125.00 224.53, 126.00 224.51, 127.00 224.50, 128.00 224.48, 129.00 224.46, 130.00 224.44, 131.00 224.42, 132.00 224.40, 133.00 224.37, 134.00 224.35, 135.00 224.33, 136.00 224.30, 137.00 224.28, 138.00 224.25, 139.00 224.22, 140.00 224.19, 141.00 224.16, 142.00 224.13, 143.00 224.10, 144.00 224.07, 145.00 224.03, 146.00 224.00, 147.00 223.96, 148.00 223.92, 149.00 223.89, 150.00 223.84, 151.00 223.80, 152.00 223.76, 153.00 223.71, 154.00 223.67, 155.00 223.62, 156.00 223.57, 157.00 223.51, 158.00 223.46, 159.00 223.40, 160.00 223.35, 161.00 223.29, 162.00 223.22, 163.00 223.16, 164.00 223.09, 165.00 223.02, 166.00 222.95, 167.00 222.88, 168.00 222.80, 169.00 222.72, 170.00 222.64, 171.00 222.55, 172.00 222.46, 173.00 222.37, 174.00 222.27, 175.00 222.18, 176.00 222.07, 177.00 221.97, 178.00 221.86, 179.00 221.75, 180.00 221.63, 181.00 221.51, 182.00 221.38, 183.00 221.26, 184.00 221.12, 185.00 220.98, 186.00 220.84, 187.00 220.69, 188.00 220.54, 189.00 220.38, 190.00 220.22, 191.00 220.05, 192.00 219.87, 193.00 219.69, 194.00 219.51, 195.00 219.31, 196.00 219.11, 197.00 218.91, 198.00 218.69, 199.00 218.47, 200.00 218.25, 201.00 218.01, 202.00 217.77, 203.00 217.52, 204.00 217.27, 205.00 217.00, 206.00 216.73, 207.00 216.44, 208.00 216.15, 209.00 215.85, 210.00 215.54, 211.00 215.22, 212.00 214.89, 213.00 214.55, 214.00 214.21, 215.00 213.85, 216.00 213.48, 217.00 213.10, 218.00 212.70, 219.00 212.30, 220.00 211.89, 221.00 211.46, 222.00 211.02, 223.00 210.57, 224.00 210.11, 225.00 209.64, 226.00 209.15, 227.00 208.65, 228.00 208.14, 229.00 207.61, 230.00 207.07, 231.00 206.52, 232.00 205.96, 233.00 205.38, 234.00 204.78, 235.00 204.18, 236.00 203.56, 237.00 202.92, 238.00 202.27, 239.00 201.61, 240.00 200.93, 241.00 200.24, 242.00 199.54, 243.00 198.82, 244.00 198.09, 245.00 197.34, 246.00 196.58, 247.00 195.81, 248.00 195.02, 249.00 194.22, 250.00 193.41, 251.00 192.58, 252.00 191.75, 253.00 190.90, 254.00 190.04, 255.00 189.16, 256.00 188.28, 257.00 187.38, 258.00 186.48, 259.00 185.56, 260.00 184.64, 261.00 183.71, 262.00 182.76, 263.00 181.81, 264.00 180.86, 265.00 179.89, 266.00 178.92, 267.00 177.94, 268.00 176.96, 269.00 175.98, 270.00 174.99, 271.00 173.99, 272.00 173.00, 273.00 172.00, 274.00 171.00, 275.00 170.00, 276.00 169.00, 277.00 168.00, 278.00 167.00, 279.00 166.01, 280.00 165.01, 281.00 164.02, 282.00 163.04, 283.00 162.06, 284.00 161.08, 285.00 160.11, 286.00 159.14, 287.00 158.19, 288.00 157.24, 289.00 156.29, 290.00 155.36, 291.00 154.44, 292.00 153.52, 293.00 152.62, 294.00 151.72, 295.00 150.84, 296.00 149.96, 297.00 149.10, 298.00 148.25, 299.00 147.42, 300.00 146.59, 301.00 145.78, 302.00 144.98, 303.00 144.19, 304.00 143.42, 305.00 142.66, 306.00 141.91, 307.00 141.18, 308.00 140.46, 309.00 139.76, 310.00 139.07, 311.00 138.39, 312.00 137.73, 313.00 137.08, 314.00 136.44, 315.00 135.82, 316.00 135.22, 317.00 134.62, 318.00 134.04, 319.00 133.48, 320.00 132.93, 321.00 132.39, 322.00 131.86, 323.00 131.35, 324.00 130.85, 325.00 130.36, 326.00 129.89, 327.00 129.43, 328.00 128.98, 329.00 128.54, 330.00 128.11, 331.00 127.70, 332.00 127.30, 333.00 126.90, 334.00 126.52, 335.00 126.15, 336.00 125.79, 337.00 125.45, 338.00 125.11, 339.00 124.78, 340.00 124.46, 341.00 124.15, 342.00 123.85, 343.00 123.56, 344.00 123.27, 345.00 123.00, 346.00 122.73, 347.00 122.48, 348.00 122.23, 349.00 121.99, 350.00 121.75, 351.00 121.53, 352.00 121.31, 353.00 121.09, 354.00 120.89, 355.00 120.69, 356.00 120.49, 357.00 120.31, 358.00 120.13, 359.00 119.95, 360.00 119.78, 361.00 119.62, 362.00 119.46, 363.00 119.31, 364.00 119.16, 365.00 119.02, 366.00 118.88, 367.00 118.74, 368.00 118.62, 369.00 118.49, 370.00 118.37, 371.00 118.25, 372.00 118.14, 373.00 118.03, 374.00 117.93, 375.00 117.82, 376.00 117.73, 377.00 117.63, 378.00 117.54, 379.00 117.45, 380.00 117.36, 381.00 117.28, 382.00 117.20, 383.00 117.12, 384.00 117.05, 385.00 116.98, 386.00 116.91, 387.00 116.84, 388.00 116.78, 389.00 116.71, 390.00 116.65, 391.00 116.60, 392.00 116.54, 393.00 116.49, 394.00 116.43, 395.00 116.38, 396.00 116.33, 397.00 116.29, 398.00 116.24, 399.00 116.20, 400.00 116.16, 401.00 116.11, 402.00 116.08, 403.00 116.04, 404.00 116.00, 405.00 115.97, 406.00 115.93, 407.00 115.90, 408.00 115.87, 409.00 115.84, 410.00 115.81, 411.00 115.78, 412.00 115.75, 413.00 115.72, 414.00 115.70, 415.00 115.67, 416.00 115.65, 417.00 115.63, 418.00 115.60, 419.00 115.58, 420.00 115.56, 421.00 115.54, 422.00 115.52, 423.00 115.50, 424.00 115.49, 425.00 115.47, 426.00 115.45, 427.00 115.44, 428.00 115.42, 429.00 115.41, 430.00 115.39, 431.00 115.38, 432.00 115.36, 433.00 115.35, 434.00 115.34, 435.00 115.33, 436.00 115.31, 437.00 115.30, 438.00 115.29, 439.00 115.28, 440.00 115.27, 441.00 115.26, 442.00 115.25, 443.00 115.24, 444.00 115.24, 445.00 115.23, 446.00 115.22, 447.00 115.21, 448.00 115.20, 449.00 115.20, 450.00 115.19, 451.00 115.18, 452.00 115.18, 453.00 115.17, 454.00 115.16, 455.00 115.16, 456.00 115.15, 457.00 115.15, 458.00 115.14, 459.00 115.14, 460.00 115.13, 461.00 115.13, 462.00 115.12, 463.00 115.12, 464.00 115.11, 465.00 115.11, 466.00 115.11, 467.00 115.10, 468.00 115.10, 469.00 115.09, 470.00 115.09, 471.00 115.09, 472.00 115.09, 473.00 115.08, 474.00 115.08, 475.00 115.08, 476.00 115.07, 477.00 115.07, 478.00 115.07, 479.00 115.07, 480.00 115.06, 481.00 115.06, 482.00 115.06, 483.00 115.06, 484.00 115.06, 485.00 115.05, 486.00 115.05, 487.00 115.05, 488.00 115.05, 489.00 115.05, 490.00 115.04, 491.00 115.04, 492.00 115.04, 493.00 115.04, 494.00 115.04, 495.00 115.04, 496.00 115.04, 497.00 115.03, 498.00 115.03, 499.00 115.03, 500.00 115.03, 501.00 115.03, 502.00 115.03, 503.00 115.03, 504.00 115.03, 505.00 115.03, 506.00 115.02, 507.00 115.02, 508.00 115.02, 509.00 115.02, 510.00 115.02, 511.00 115.02, 512.00 115.02, 513.00 115.02, 514.00 115.02, 515.00 115.02, 516.00 115.02, 517.00 115.02, 518.00 115.02, 519.00 115.02, 520.00 115.01, 521.00 115.01, 522.00 115.01, 523.00 115.01, 524.00 115.01, 525.00 115.01, 526.00 115.01, 527.00 115.01, 528.00 115.01, 529.00 115.01, 530.00 115.01, 531.00 115.01, 532.00 115.01, 533.00 115.01, 534.00 115.01, 535.00 115.01, 536.00 115.01, 537.00 115.01, 538.00 115.01, 539.00 115.01, 540.00 115.01, 541.00 115.01, 542.00 115.01, 543.00 115.01, 544.00 115.01, 545.00 115.01, 546.00 115.01, 547.00 115.01, 548.00 115.01, 549.00 115.01, 550.00 115.00, "
     id="polyline6972"
     transform="matrix(0.653636,0,0,0.653368,0.250051,7.07025)"
     style="fill:#ffeedd;fill-opacity:0.2;stroke:#00008b;stroke-width:2.295326" />
  <polyline
     points="33.000 340.30, 34.000 330.27, 35.000 321.26, 36.000 313.10, 37.000 305.68, 38.000 298.90, 39.000 292.67, 40.000 286.93, 41.000 281.61, 42.000 276.68, 43.000 272.08, 44.000 267.78, 45.000 263.75, 46.000 259.96, 47.000 256.39, 48.000 253.02, 49.000 249.83, 50.000 246.80, 51.000 243.92, 52.000 241.18, 53.000 238.57, 54.000 236.07, 55.000 233.68, 56.000 231.39, 57.000 229.19, 58.000 227.07, 59.000 225.03, 60.000 223.07, 61.000 221.17, 62.000 219.33, 63.000 217.56, 64.000 215.84, 65.000 214.17, 66.000 212.55, 67.000 210.97, 68.000 209.43, 69.000 207.94, 70.000 206.48, 71.000 205.06, 72.000 203.67, 73.000 202.31, 74.000 200.98, 75.000 199.67, 76.000 198.40, 77.000 197.14, 78.000 195.91, 79.000 194.70, 80.000 193.50, 81.000 192.33, 82.000 191.17, 83.000 190.03, 84.000 188.91, 85.000 187.80, 86.000 186.70, 87.000 185.61, 88.000 184.54, 89.000 183.47, 90.000 182.42, 91.000 181.37, 92.000 180.33, 93.000 179.30, 94.000 178.27, 95.000 177.25, 96.000 176.24, 97.000 175.23, 98.000 174.22, 99.000 173.22, 100.00 172.21, 101.00 171.21, 102.00 170.21, 103.00 169.21, 104.00 168.21, 105.00 167.21, 106.00 166.21, 107.00 165.20, 108.00 164.19, 109.00 163.18, 110.00 162.16, 111.00 161.14, 112.00 160.11, 113.00 159.07, 114.00 158.03, 115.00 156.98, 116.00 155.92, 117.00 154.85, 118.00 153.76, 119.00 152.67, 120.00 151.57, 121.00 150.45, 122.00 149.31, 123.00 148.16, 124.00 147.00, 125.00 145.81, 126.00 144.61, 127.00 143.39, 128.00 142.14, 129.00 140.87, 130.00 139.58, 131.00 138.26, 132.00 136.91, 133.00 135.54, 134.00 134.13, 135.00 132.68, 136.00 131.20, 137.00 129.69, 138.00 128.13, 139.00 126.53, 140.00 124.88, 141.00 123.18, 142.00 121.43, 143.00 119.62, 144.00 117.75, 145.00 115.81, 146.00 113.81, 147.00 111.72, 148.00 109.56, 149.00 107.31, 150.00 104.96, 151.00 102.51, 152.00 99.942, 153.00 97.257, 154.00 94.440, 155.00 91.478, 156.00 88.358, 157.00 85.066, 158.00 81.583, 159.00 77.890, 160.00 73.966, 161.00 69.784, 162.00 65.315, 163.00 60.526, 164.00 55.377, 165.00 49.823, 166.00 43.809, 167.00 37.271, 168.00 30.133, 169.00 22.304, 170.00 13.670, 171.00 4.0948, 172.00 -6.5915, 173.00 -10.000, "
     id="polyline6974"
     transform="matrix(0.653636,0,0,0.653368,0.250051,7.07025)"
     style="fill:#ffeedd;fill-opacity:0.2;stroke:#9ade00;stroke-width:2.295326" />
  <polyline
     points="205.00 349.02, 206.00 338.08, 207.00 328.28, 208.00 319.46, 209.00 311.47, 210.00 304.19, 211.00 297.53, 212.00 291.41, 213.00 285.77, 214.00 280.54, 215.00 275.67, 216.00 271.14, 217.00 266.90, 218.00 262.92, 219.00 259.18, 220.00 255.66, 221.00 252.33, 222.00 249.17, 223.00 246.18, 224.00 243.33, 225.00 240.62, 226.00 238.03, 227.00 235.55, 228.00 233.19, 229.00 230.91, 230.00 228.73, 231.00 226.63, 232.00 224.61, 233.00 222.66, 234.00 220.77, 235.00 218.95, 236.00 217.19, 237.00 215.48, 238.00 213.82, 239.00 212.21, 240.00 210.64, 241.00 209.11, 242.00 207.63, 243.00 206.18, 244.00 204.76, 245.00 203.38, 246.00 202.02, 247.00 200.70, 248.00 199.40, 249.00 198.13, 250.00 196.88, 251.00 195.65, 252.00 194.44, 253.00 193.25, 254.00 192.08, 255.00 190.93, 256.00 189.79, 257.00 188.67, 258.00 187.56, 259.00 186.47, 260.00 185.38, 261.00 184.31, 262.00 183.25, 263.00 182.19, 264.00 181.15, 265.00 180.11, 266.00 179.08, 267.00 178.06, 268.00 177.04, 269.00 176.02, 270.00 175.01, 271.00 174.01, 272.00 173.00, 273.00 172.00, 274.00 171.00, 275.00 170.00, 276.00 169.00, 277.00 168.00, 278.00 167.00, 279.00 165.99, 280.00 164.99, 281.00 163.98, 282.00 162.96, 283.00 161.94, 284.00 160.92, 285.00 159.89, 286.00 158.85, 287.00 157.81, 288.00 156.75, 289.00 155.69, 290.00 154.62, 291.00 153.53, 292.00 152.44, 293.00 151.33, 294.00 150.21, 295.00 149.07, 296.00 147.92, 297.00 146.75, 298.00 145.56, 299.00 144.35, 300.00 143.12, 301.00 141.87, 302.00 140.60, 303.00 139.30, 304.00 137.98, 305.00 136.62, 306.00 135.24, 307.00 133.82, 308.00 132.37, 309.00 130.89, 310.00 129.36, 311.00 127.79, 312.00 126.18, 313.00 124.52, 314.00 122.81, 315.00 121.05, 316.00 119.23, 317.00 117.34, 318.00 115.39, 319.00 113.37, 320.00 111.27, 321.00 109.09, 322.00 106.81, 323.00 104.45, 324.00 101.97, 325.00 99.382, 326.00 96.670, 327.00 93.823, 328.00 90.829, 329.00 87.674, 330.00 84.343, 331.00 80.817, 332.00 77.077, 333.00 73.100, 334.00 68.859, 335.00 64.326, 336.00 59.464, 337.00 54.233, 338.00 48.586, 339.00 42.466, 340.00 35.808, 341.00 28.532, 342.00 20.541, 343.00 11.720, 344.00 1.9244, 345.00 -9.0238, 346.00 -10.000, "
     id="polyline6976"
     transform="matrix(0.653636,0,0,0.653368,0.250051,7.07025)"
     style="fill:#ffeedd;fill-opacity:0.2;stroke:#9ade00;stroke-width:2.295326" />
  <polyline
     points="378.00 346.59, 379.00 335.91, 380.00 326.33, 381.00 317.70, 382.00 309.87, 383.00 302.73, 384.00 296.19, 385.00 290.18, 386.00 284.62, 387.00 279.47, 388.00 274.69, 389.00 270.22, 390.00 266.03, 391.00 262.11, 392.00 258.42, 393.00 254.93, 394.00 251.64, 395.00 248.52, 396.00 245.56, 397.00 242.74, 398.00 240.06, 399.00 237.49, 400.00 235.04, 401.00 232.69, 402.00 230.44, 403.00 228.28, 404.00 226.19, 405.00 224.19, 406.00 222.25, 407.00 220.38, 408.00 218.57, 409.00 216.82, 410.00 215.12, 411.00 213.47, 412.00 211.87, 413.00 210.31, 414.00 208.80, 415.00 207.32, 416.00 205.87, 417.00 204.46, 418.00 203.09, 419.00 201.74, 420.00 200.42, 421.00 199.13, 422.00 197.86, 423.00 196.61, 424.00 195.39, 425.00 194.19, 426.00 193.00, 427.00 191.84, 428.00 190.69, 429.00 189.55, 430.00 188.43, 431.00 187.33, 432.00 186.24, 433.00 185.15, 434.00 184.08, 435.00 183.02, 436.00 181.97, 437.00 180.93, 438.00 179.89, 439.00 178.86, 440.00 177.84, 441.00 176.82, 442.00 175.81, 443.00 174.80, 444.00 173.79, 445.00 172.79, 446.00 171.79, 447.00 170.79, 448.00 169.79, 449.00 168.79, 450.00 167.79, 451.00 166.78, 452.00 165.78, 453.00 164.77, 454.00 163.76, 455.00 162.75, 456.00 161.73, 457.00 160.70, 458.00 159.67, 459.00 158.63, 460.00 157.58, 461.00 156.53, 462.00 155.46, 463.00 154.39, 464.00 153.30, 465.00 152.20, 466.00 151.09, 467.00 149.97, 468.00 148.83, 469.00 147.67, 470.00 146.50, 471.00 145.30, 472.00 144.09, 473.00 142.86, 474.00 141.60, 475.00 140.33, 476.00 139.02, 477.00 137.69, 478.00 136.33, 479.00 134.94, 480.00 133.52, 481.00 132.06, 482.00 130.57, 483.00 129.03, 484.00 127.45, 485.00 125.83, 486.00 124.16, 487.00 122.44, 488.00 120.67, 489.00 118.83, 490.00 116.93, 491.00 114.97, 492.00 112.93, 493.00 110.81, 494.00 108.61, 495.00 106.32, 496.00 103.93, 497.00 101.43, 498.00 98.817, 499.00 96.077, 500.00 93.200, 501.00 90.173, 502.00 86.982, 503.00 83.611, 504.00 80.041, 505.00 76.253, 506.00 72.222, 507.00 67.922, 508.00 63.322, 509.00 58.385, 510.00 53.070, 511.00 47.328, 512.00 41.100, 513.00 34.317, 514.00 26.898, 515.00 18.741, 516.00 9.7262, 517.00 -0.29781, 518.00 -10.000, "
     id="polyline6978"
     transform="matrix(0.653636,0,0,0.653368,0.250051,7.07025)"
     style="fill:#ffeedd;fill-opacity:0.2;stroke:#9ade00;stroke-width:2.295326" />
  <text
     xml:space="preserve"
     style="color:#000000;font-style:italic;font-variant:normal;font-weight:normal;font-stretch:normal;font-size:21.333332px;line-height:16.326099px;font-family:'Comic Sans MS';-inkscape-font-specification:'Comic Sans MS, Italic';font-variant-ligatures:normal;font-variant-caps:normal;font-variant-numeric:normal;font-feature-settings:normal;text-indent:0;text-align:start;text-decoration:none;text-decoration-line:none;text-decoration-style:solid;text-decoration-color:#000000;letter-spacing:0px;word-spacing:0px;text-transform:none;writing-mode:lr-tb;direction:ltr;baseline-shift:baseline;text-anchor:start;white-space:normal;clip-rule:nonzero;display:inline;overflow:visible;visibility:visible;opacity:1;isolation:auto;mix-blend-mode:normal;color-interpolation:sRGB;color-interpolation-filters:linearRGB;solid-color:#000000;solid-opacity:1;fill:#00008b;fill-opacity:1;fill-rule:nonzero;stroke:none;stroke-width:1px;stroke-linecap:butt;stroke-linejoin:miter;stroke-miterlimit:4;stroke-dasharray:none;stroke-dashoffset:0;stroke-opacity:1;color-rendering:auto;image-rendering:auto;shape-rendering:auto;text-rendering:auto;enable-background:accumulate;"
     x="236.025"
     y="73.4116"
     id="text5618"
     transform="scale(1.00016,0.999841)"><tspan
       sodipodi:role="line"
       id="tspan5616"
       x="236.025"
       y="73.4116"
       style="font-style:italic;font-variant:normal;font-weight:normal;font-stretch:normal;font-size:21.333332px;font-family:'Comic Sans MS';-inkscape-font-specification:'Comic Sans MS, Italic';font-variant-ligatures:normal;font-variant-caps:normal;font-variant-numeric:normal;font-feature-settings:normal;text-align:start;writing-mode:lr-tb;text-anchor:start;stroke-width:1px;fill:#00008b;">tanh(x)</tspan></text>
  <text
     id="text5622"
     y="145.069"
     x="197.289"
     style="color:#000000;font-style:italic;font-variant:normal;font-weight:normal;font-stretch:normal;font-size:21.333332px;line-height:16.326099px;font-family:'Comic Sans MS';-inkscape-font-specification:'Comic Sans MS, Italic';font-variant-ligatures:normal;font-variant-caps:normal;font-variant-numeric:normal;font-feature-settings:normal;text-indent:0;text-align:start;text-decoration:none;text-decoration-line:none;text-decoration-style:solid;text-decoration-color:#000000;letter-spacing:0px;word-spacing:0px;text-transform:none;writing-mode:lr-tb;direction:ltr;baseline-shift:baseline;text-anchor:start;white-space:normal;clip-rule:nonzero;display:inline;overflow:visible;visibility:visible;opacity:1;isolation:auto;mix-blend-mode:normal;color-interpolation:sRGB;color-interpolation-filters:linearRGB;solid-color:#000000;solid-opacity:1;fill:#9ade00;fill-opacity:1;fill-rule:nonzero;stroke:none;stroke-width:1px;stroke-linecap:butt;stroke-linejoin:miter;stroke-miterlimit:4;stroke-dasharray:none;stroke-dashoffset:0;stroke-opacity:1;color-rendering:auto;image-rendering:auto;shape-rendering:auto;text-rendering:auto;enable-background:accumulate"
     xml:space="preserve"
     transform="scale(1.00016,0.999841)"><tspan
       y="145.069"
       x="197.289"
       id="tspan5620"
       sodipodi:role="line"
       style="font-style:italic;font-variant:normal;font-weight:normal;font-stretch:normal;font-size:21.333332px;font-family:'Comic Sans MS';-inkscape-font-specification:'Comic Sans MS, Italic';font-variant-ligatures:normal;font-variant-caps:normal;font-variant-numeric:normal;font-feature-settings:normal;text-align:start;writing-mode:lr-tb;text-anchor:start;stroke-width:1px">tan(x)</tspan></text>
  <text
     xml:space="preserve"
     style="font-style:italic;font-variant:normal;font-weight:bold;font-stretch:normal;font-size:30.012499px;line-height:125%;font-family:'Times New Roman';-inkscape-font-specification:'Times New Roman Bold Italic';text-indent:0;text-align:start;text-decoration:none;text-decoration-line:none;letter-spacing:normal;word-spacing:normal;text-transform:none;writing-mode:lr-tb;direction:ltr;text-anchor:start;display:inline;overflow:visible;visibility:visible;opacity:1;fill:#000000;fill-opacity:1;fill-rule:nonzero;stroke:none;stroke-width:0.535937px;stroke-linecap:butt;stroke-linejoin:miter;stroke-miterlimit:4;stroke-dasharray:none;stroke-dashoffset:0;stroke-opacity:1;marker:none;marker-start:none;marker-mid:none;marker-end:none"
     x="155.823"
     y="25.9036"
     id="text3708"><tspan
       y="25.9036"
       x="155.823"
       id="tspan3710"
       sodipodi:role="line"
       style="stroke-width:0.535937px">y</tspan></text>
  <text
     xml:space="preserve"
     style="font-style:italic;font-variant:normal;font-weight:bold;font-stretch:normal;font-size:30.012499px;line-height:125%;font-family:'Times New Roman';text-indent:0;text-align:start;text-decoration:none;text-decoration-line:none;letter-spacing:normal;word-spacing:normal;text-transform:none;writing-mode:lr-tb;direction:ltr;text-anchor:start;display:inline;overflow:visible;visibility:visible;opacity:1;fill:#000000;fill-opacity:1;fill-rule:nonzero;stroke:none;stroke-width:0.535937px;stroke-linecap:butt;stroke-linejoin:miter;stroke-miterlimit:4;stroke-dasharray:none;stroke-dashoffset:0;stroke-opacity:1;marker:none;marker-start:none;marker-mid:none;marker-end:none"
     x="333.909"
     y="141.321"
     id="text3726"><tspan
       y="141.321"
       x="333.909"
       id="tspan3728"
       sodipodi:role="line"
       style="stroke-width:0.535937px">x</tspan></text>
</svg>
